<svg xmlns="http://www.w3.org/2000/svg" version="1.1" xmlns:xlink="http://www.w3.org/1999/xlink" fill="none" width="22.088" height="22.448" viewBox="0 0 22.088 22.448"><g transform="matrix(0.7071067811865477,-0.7071067811865475,0.7071067811865475,0.7071067811865477,-4.001771347309194,4.14286933981009)"><path d="M0 0L2.4400001 0L2.4400001 2.4400001L0 2.4400001L0 0ZM2.4400001 2.4400001L4.8800001 2.4400001L4.8800001 4.8800001L2.4400001 4.8800001L2.4400001 2.4400001ZM4.8800001 4.8800001L7.3210001 4.8800001L7.3210001 7.3200002L4.8800001 7.3200002L4.8800001 4.8800001ZM7.3210001 7.3200002L9.7609997 7.3200002L9.7609997 9.7600002L7.3210001 9.7600002L7.3210001 7.3200002ZM4.8800001 9.7600002L7.3210001 9.7600002L7.3210001 12.2L4.8800001 12.2L4.8800001 9.7600002ZM2.4400001 12.2L4.8800001 12.2L4.8800001 14.64L2.4400001 14.64L2.4400001 12.2ZM0 14.793L0 17.08L0 17.233L2.4400001 17.233L2.4400001 17.08L2.4400001 14.793L2.4400001 14.64L0 14.64L0 14.793Z" transform="translate(3, 6.902)" fill="#988f93"></path></g><rect x="11.725" y="9" width="2.438" height="2.438" fill="#988f93" transform="matrix(0.7071067690849304,0.7071067690849304,-0.7071067690849304,0.7071067690849304,9.798134054243565,-5.654787789285182)"></rect><rect x="9.724" y="11" width="2.438" height="2.438" fill="#988f93" transform="matrix(0.7071067690849304,0.7071067690849304,-0.7071067690849304,0.7071067690849304,10.62626823735237,-3.654080682516099)"></rect><rect x="7.724" y="13" width="2.438" height="2.438" fill="#988f93" transform="matrix(0.7071067690849304,0.7071067690849304,-0.7071067690849304,0.7071067690849304,11.454695313692092,-1.6540806825160992)"></rect><rect x="5.724" y="15" width="2.438" height="2.438" fill="#988f93" transform="matrix(0.7071067690849304,0.7071067690849304,-0.7071067690849304,0.7071067690849304,12.283122390031814,0.3459193174839008)"></rect><rect x="3.724" y="17" width="2.438" height="2.438" fill="#988f93" transform="matrix(0.7071067690849304,0.7071067690849304,-0.7071067690849304,0.7071067690849304,13.111549466371535,2.345919317483901)"></rect><rect x="1.724" y="19" width="2.438" height="2.438" fill="#988f93" transform="matrix(0.7071067690849304,0.7071067690849304,-0.7071067690849304,0.7071067690849304,13.939976542711259,4.345919317483903)"></rect></svg>